<svg width="362" height="72" viewBox="0 0 362 72" fill="none" xmlns="http://www.w3.org/2000/svg">
<path fill-rule="evenodd" clip-rule="evenodd" d="M50.8127 39.6001C55.7833 39.6001 59.8127 35.5707 59.8127 30.6001C59.8127 25.6295 55.7833 21.6001 50.8127 21.6001C45.8422 21.6001 41.8127 25.6295 41.8127 30.6001C41.8127 35.5707 45.8422 39.6001 50.8127 39.6001ZM67.6128 55.5602C67.6128 59.6692 64.3632 63.0001 60.3547 63.0001H47.2128C48.3732 61.7775 49.336 60.3777 50.0272 58.8668C51.4431 55.2023 51.4377 51.5626 50.4347 48.5335C49.619 46.07 49.4295 45.7585 48.9761 45.0134C48.872 44.8423 48.754 44.6483 48.6113 44.4001H56.7257C62.7385 44.4001 67.6128 49.3967 67.6128 55.5602Z" fill="#F7C27A"/>
<path fill-rule="evenodd" clip-rule="evenodd" d="M25.8128 33C32.4402 33 37.8128 27.6274 37.8128 21C37.8128 14.3726 32.4402 9 25.8128 9C19.1853 9 13.8128 14.3726 13.8128 21C13.8128 27.6274 19.1853 33 25.8128 33ZM20.4128 39C12.4599 39 6.01276 45.4471 6.01276 53.4C6.01276 58.7019 10.3108 63 15.6128 63H36.0128C41.3147 63 45.6128 58.7019 45.6128 53.4C45.6128 45.4471 39.1656 39 31.2127 39H20.4128Z" fill="#EF8220"/>
<path fill-rule="evenodd" clip-rule="evenodd" d="M25.8128 33C32.4402 33 37.8128 27.6274 37.8128 21C37.8128 14.3726 32.4402 9 25.8128 9C19.1853 9 13.8128 14.3726 13.8128 21C13.8128 27.6274 19.1853 33 25.8128 33ZM20.4128 39C12.4599 39 6.01276 45.4471 6.01276 53.4C6.01276 58.7019 10.3108 63 15.6128 63H36.0128C41.3147 63 45.6128 58.7019 45.6128 53.4C45.6128 45.4471 39.1656 39 31.2127 39H20.4128Z" fill="white" fill-opacity="0.2"/>
<path d="M103.493 29.4002C103.066 29.4002 102.759 29.2402 102.573 28.9202C102.226 28.2536 101.786 27.7336 101.253 27.3602C100.639 26.9069 99.826 26.6802 98.8127 26.6802C97.666 26.6802 96.7594 26.9869 96.0927 27.6002C95.5327 28.1069 95.2527 28.7736 95.2527 29.6002C95.2527 29.9736 95.306 30.2669 95.4127 30.4802C95.5194 30.6402 95.706 30.8536 95.9727 31.1202C96.426 31.5202 97.2794 31.9736 98.5327 32.4802L101.173 33.5202C103.226 34.3202 104.733 35.1602 105.693 36.0402C107.186 37.4269 107.933 39.1469 107.933 41.2002C107.933 43.6536 107.066 45.6802 105.333 47.2802C103.493 48.9336 101.146 49.7602 98.2927 49.7602C95.5727 49.7602 93.3594 49.0002 91.6527 47.4802C90.266 46.2802 89.3194 44.6669 88.8127 42.6402C88.8127 42.5602 88.8127 42.4936 88.8127 42.4402C88.8127 41.9602 89.0527 41.6669 89.5327 41.5602L92.4927 40.8002C92.5727 40.7736 92.666 40.7602 92.7727 40.7602C93.0127 40.7602 93.226 40.8402 93.4127 41.0002C93.626 41.1336 93.746 41.3202 93.7727 41.5602C93.9327 42.6002 94.386 43.4802 95.1327 44.2002C95.426 44.4669 95.7994 44.6802 96.2527 44.8402C96.706 44.9736 97.146 45.0802 97.5727 45.1602C98.026 45.2402 98.2794 45.2936 98.3327 45.3202C99.6927 45.3202 100.773 44.9469 101.573 44.2002C102.373 43.4802 102.773 42.5202 102.773 41.3202C102.773 40.4402 102.439 39.6936 101.773 39.0802C101.319 38.7069 100.319 38.2002 98.7727 37.5602C97.1194 36.8669 96.226 36.4802 96.0927 36.4002C94.466 35.7336 93.226 35.0269 92.3727 34.2802C91.706 33.6936 91.1994 33.0802 90.8527 32.4402C90.3994 31.6136 90.1727 30.6536 90.1727 29.5602C90.1727 27.5336 90.9194 25.8402 92.4127 24.4802C94.066 22.9869 96.2127 22.2402 98.8527 22.2402C100.746 22.2402 102.399 22.6669 103.813 23.5202C105.066 24.2669 106.066 25.2936 106.813 26.6002C106.893 26.7336 106.933 26.8802 106.933 27.0402C106.933 27.3602 106.773 27.6136 106.453 27.8002L104.053 29.2802C103.893 29.3602 103.706 29.4002 103.493 29.4002Z" fill="#183363"/>
<path d="M124.036 38.4002C124.036 38.1602 124.116 37.9469 124.276 37.7602C124.462 37.5736 124.689 37.4802 124.956 37.4802H128.516C128.782 37.4802 129.009 37.5736 129.196 37.7602L132.836 41.4802C134.009 39.9069 134.596 38.0802 134.596 36.0002C134.596 33.4402 133.702 31.2536 131.916 29.4402C130.129 27.6002 127.969 26.6802 125.436 26.6802C122.902 26.6802 120.742 27.6002 118.956 29.4402C117.169 31.2536 116.276 33.4402 116.276 36.0002C116.276 38.5602 117.156 40.7602 118.916 42.6002C120.702 44.4136 122.876 45.3202 125.436 45.3202C126.849 45.3202 128.182 45.0002 129.436 44.3602L124.276 39.0802C124.116 38.8936 124.036 38.6669 124.036 38.4002ZM125.436 22.2402C127.969 22.2402 130.289 22.8402 132.396 24.0402C134.529 25.2402 136.209 26.8936 137.436 29.0002C138.662 31.1069 139.276 33.4402 139.276 36.0002C139.276 39.4136 138.222 42.3736 136.116 44.8802L139.156 48.0002C139.342 48.1869 139.436 48.4002 139.436 48.6402C139.436 48.8802 139.342 49.0936 139.156 49.2802C138.996 49.4669 138.782 49.5602 138.516 49.5602H134.916C134.649 49.5602 134.436 49.4669 134.276 49.2802L132.796 47.7602C130.582 49.0936 128.129 49.7602 125.436 49.7602C122.902 49.7602 120.569 49.1602 118.436 47.9602C116.329 46.7602 114.662 45.1069 113.436 43.0002C112.209 40.8936 111.596 38.5602 111.596 36.0002C111.596 33.4402 112.209 31.1069 113.436 29.0002C114.662 26.8936 116.329 25.2402 118.436 24.0402C120.569 22.8402 122.902 22.2402 125.436 22.2402Z" fill="#183363"/>
<path d="M163.673 42.6002C165.46 40.7602 166.353 38.5602 166.353 36.0002C166.353 33.4402 165.46 31.2536 163.673 29.4402C161.913 27.6002 159.753 26.6802 157.193 26.6802C154.633 26.6802 152.46 27.6002 150.673 29.4402C148.913 31.2536 148.033 33.4402 148.033 36.0002C148.033 38.5602 148.913 40.7602 150.673 42.6002C152.46 44.4136 154.633 45.3202 157.193 45.3202C159.753 45.3202 161.913 44.4136 163.673 42.6002ZM169.193 29.0002C170.42 31.1069 171.033 33.4402 171.033 36.0002C171.033 38.5602 170.42 40.8936 169.193 43.0002C167.967 45.1069 166.3 46.7602 164.193 47.9602C162.087 49.1602 159.753 49.7602 157.193 49.7602C154.633 49.7602 152.3 49.1602 150.193 47.9602C148.087 46.7602 146.42 45.1069 145.193 43.0002C143.967 40.8936 143.353 38.5602 143.353 36.0002C143.353 33.4402 143.967 31.1069 145.193 29.0002C146.42 26.8936 148.087 25.2402 150.193 24.0402C152.327 22.8402 154.66 22.2402 157.193 22.2402C159.727 22.2402 162.047 22.8402 164.153 24.0402C166.287 25.2402 167.967 26.8936 169.193 29.0002Z" fill="#183363"/>
<path d="M195.431 42.6002C197.218 40.7602 198.111 38.5602 198.111 36.0002C198.111 33.4402 197.218 31.2536 195.431 29.4402C193.671 27.6002 191.511 26.6802 188.951 26.6802C186.391 26.6802 184.218 27.6002 182.431 29.4402C180.671 31.2536 179.791 33.4402 179.791 36.0002C179.791 38.5602 180.671 40.7602 182.431 42.6002C184.218 44.4136 186.391 45.3202 188.951 45.3202C191.511 45.3202 193.671 44.4136 195.431 42.6002ZM200.951 29.0002C202.178 31.1069 202.791 33.4402 202.791 36.0002C202.791 38.5602 202.178 40.8936 200.951 43.0002C199.724 45.1069 198.058 46.7602 195.951 47.9602C193.844 49.1602 191.511 49.7602 188.951 49.7602C186.391 49.7602 184.058 49.1602 181.951 47.9602C179.844 46.7602 178.178 45.1069 176.951 43.0002C175.724 40.8936 175.111 38.5602 175.111 36.0002C175.111 33.4402 175.724 31.1069 176.951 29.0002C178.178 26.8936 179.844 25.2402 181.951 24.0402C184.084 22.8402 186.418 22.2402 188.951 22.2402C191.484 22.2402 193.804 22.8402 195.911 24.0402C198.044 25.2402 199.724 26.8936 200.951 29.0002Z" fill="#183363"/>
<path d="M208.789 49.3202C208.522 49.3202 208.296 49.2269 208.109 49.0402C207.922 48.8536 207.829 48.6402 207.829 48.4002V23.5602C207.829 23.3202 207.922 23.1069 208.109 22.9202C208.296 22.7336 208.522 22.6402 208.789 22.6402H211.549C211.816 22.6402 212.029 22.7336 212.189 22.9202C212.376 23.1069 212.469 23.3202 212.469 23.5602V44.8402H222.269C222.536 44.8402 222.762 44.9336 222.949 45.1202C223.136 45.2802 223.229 45.5069 223.229 45.8002V48.4002C223.229 48.6402 223.136 48.8536 222.949 49.0402C222.762 49.2269 222.536 49.3202 222.269 49.3202H208.789Z" fill="#183363"/>
<path d="M236.957 36.0402C236.957 33.6136 237.544 31.3869 238.717 29.3602C239.917 27.3069 241.544 25.6936 243.597 24.5202C245.651 23.3469 247.891 22.7602 250.317 22.7602C251.437 22.7602 252.517 22.8936 253.557 23.1602C254.597 23.4269 255.491 23.7736 256.237 24.2002C256.984 24.6269 257.544 24.9869 257.917 25.2802C258.291 25.5736 258.637 25.8669 258.957 26.1602C259.064 26.2402 259.117 26.3469 259.117 26.4802V28.6402C259.117 28.7736 259.064 28.8936 258.957 29.0002C258.877 29.0802 258.771 29.1202 258.637 29.1202C258.504 29.1202 258.384 29.0536 258.277 28.9202C258.091 28.7069 257.891 28.4936 257.677 28.2802C255.624 26.2269 253.157 25.2002 250.277 25.2002C247.237 25.2002 244.691 26.2669 242.637 28.4002C240.611 30.5069 239.597 33.0802 239.597 36.1202C239.597 39.1336 240.597 41.6269 242.597 43.6002C243.637 44.6402 244.837 45.4402 246.197 46.0002C247.584 46.5602 248.957 46.8402 250.317 46.8402C251.571 46.8402 252.877 46.5736 254.237 46.0402C255.597 45.5069 256.837 44.6936 257.957 43.6002C258.064 43.4669 258.171 43.3469 258.277 43.2402C258.384 43.1336 258.504 43.0802 258.637 43.0802C258.771 43.0802 258.877 43.1336 258.957 43.2402C259.064 43.3202 259.117 43.4269 259.117 43.5602V45.7202C259.117 45.8536 259.064 45.9736 258.957 46.0802C256.531 48.2136 253.677 49.2802 250.397 49.2802C246.637 49.2802 243.451 48.0002 240.837 45.4402C238.251 42.8536 236.957 39.7202 236.957 36.0402Z" fill="#183363"/>
<path d="M265.187 23.5602C265.187 23.4269 265.227 23.3202 265.307 23.2402C265.413 23.1602 265.533 23.1202 265.667 23.1202H267.307C267.44 23.1202 267.547 23.1736 267.627 23.2802C267.707 23.3602 267.747 23.4536 267.747 23.5602C267.747 26.1202 267.747 29.9469 267.747 35.0402C267.747 40.1069 267.747 43.9069 267.747 46.4402H278.307C278.44 46.4402 278.547 46.4936 278.627 46.6002C278.733 46.6802 278.787 46.7736 278.787 46.8802V48.4002C278.787 48.5069 278.733 48.6136 278.627 48.7202C278.547 48.8002 278.44 48.8402 278.307 48.8402H265.667C265.533 48.8402 265.413 48.8002 265.307 48.7202C265.227 48.6402 265.187 48.5336 265.187 48.4002V23.5602Z" fill="#183363"/>
<path d="M291.98 28.2402L287.94 38.2402H295.94L291.98 28.2402ZM281.58 48.8402C281.42 48.8402 281.3 48.8002 281.22 48.7202C281.14 48.6136 281.1 48.4936 281.1 48.3602C281.1 48.3069 281.113 48.2536 281.14 48.2002L291.58 22.6402C291.66 22.4269 291.806 22.3202 292.02 22.3202C292.233 22.3202 292.38 22.4269 292.46 22.6402L302.74 48.2002C302.766 48.2536 302.78 48.3069 302.78 48.3602C302.78 48.4936 302.74 48.6136 302.66 48.7202C302.58 48.8002 302.46 48.8402 302.3 48.8402H300.54C300.326 48.8402 300.18 48.7336 300.1 48.5202L296.9 40.6802H286.98L283.78 48.5202C283.7 48.7336 283.553 48.8402 283.34 48.8402H281.58Z" fill="#183363"/>
<path d="M313.327 46.8402C315.034 46.8402 316.474 46.3469 317.647 45.3602C318.82 44.3469 319.407 43.0936 319.407 41.6002C319.407 40.5336 318.994 39.6402 318.167 38.9202C317.847 38.6269 317.46 38.3469 317.007 38.0802C316.234 37.6802 314.7 36.9602 312.407 35.9202C310.247 34.9869 308.82 34.2002 308.127 33.5602C307.78 33.2402 307.474 32.8802 307.207 32.4802C306.567 31.5469 306.247 30.5202 306.247 29.4002C306.247 27.5069 306.954 25.9202 308.367 24.6402C309.754 23.3869 311.554 22.7602 313.767 22.7602C316.034 22.7602 317.927 23.4536 319.447 24.8402C320.007 25.3469 320.474 25.9202 320.847 26.5602C320.9 26.6136 320.927 26.6802 320.927 26.7602C320.927 26.9202 320.86 27.0402 320.727 27.1202L319.407 28.1202C319.327 28.2002 319.22 28.2402 319.087 28.2402C318.874 28.2402 318.727 28.1602 318.647 28.0002C318.327 27.4402 317.954 26.9602 317.527 26.5602C316.514 25.6536 315.247 25.2002 313.727 25.2002C312.367 25.2002 311.26 25.5869 310.407 26.3602C309.58 27.1336 309.167 28.1336 309.167 29.3602C309.167 30.3469 309.514 31.1602 310.207 31.8002C310.794 32.3336 312.407 33.1736 315.047 34.3202C317.02 35.1736 318.394 35.8536 319.167 36.3602C319.674 36.6802 320.1 37.0002 320.447 37.3202C321.674 38.4402 322.287 39.8536 322.287 41.5602C322.287 43.7469 321.407 45.5869 319.647 47.0802C317.887 48.5469 315.767 49.2802 313.287 49.2802C310.807 49.2802 308.754 48.5336 307.127 47.0402C306.94 46.8802 306.754 46.6936 306.567 46.4802C305.714 45.6269 305.087 44.6802 304.687 43.6402C304.687 43.5869 304.687 43.5336 304.687 43.4802C304.687 43.2936 304.78 43.1469 304.967 43.0402L306.527 42.4002C306.58 42.3736 306.647 42.3602 306.727 42.3602C306.967 42.3602 307.127 42.4536 307.207 42.6402C307.5 43.4136 307.967 44.1736 308.607 44.9202C308.74 45.0536 308.874 45.1736 309.007 45.2802C310.127 46.3202 311.567 46.8402 313.327 46.8402Z" fill="#183363"/>
<path d="M334.226 46.8402C335.932 46.8402 337.372 46.3469 338.546 45.3602C339.719 44.3469 340.306 43.0936 340.306 41.6002C340.306 40.5336 339.892 39.6402 339.066 38.9202C338.746 38.6269 338.359 38.3469 337.906 38.0802C337.132 37.6802 335.599 36.9602 333.306 35.9202C331.146 34.9869 329.719 34.2002 329.026 33.5602C328.679 33.2402 328.372 32.8802 328.106 32.4802C327.466 31.5469 327.146 30.5202 327.146 29.4002C327.146 27.5069 327.852 25.9202 329.266 24.6402C330.652 23.3869 332.452 22.7602 334.666 22.7602C336.932 22.7602 338.826 23.4536 340.346 24.8402C340.906 25.3469 341.372 25.9202 341.746 26.5602C341.799 26.6136 341.826 26.6802 341.826 26.7602C341.826 26.9202 341.759 27.0402 341.626 27.1202L340.306 28.1202C340.226 28.2002 340.119 28.2402 339.986 28.2402C339.772 28.2402 339.626 28.1602 339.546 28.0002C339.226 27.4402 338.852 26.9602 338.426 26.5602C337.412 25.6536 336.146 25.2002 334.626 25.2002C333.266 25.2002 332.159 25.5869 331.306 26.3602C330.479 27.1336 330.066 28.1336 330.066 29.3602C330.066 30.3469 330.412 31.1602 331.106 31.8002C331.692 32.3336 333.306 33.1736 335.946 34.3202C337.919 35.1736 339.292 35.8536 340.066 36.3602C340.572 36.6802 340.999 37.0002 341.346 37.3202C342.572 38.4402 343.186 39.8536 343.186 41.5602C343.186 43.7469 342.306 45.5869 340.546 47.0802C338.786 48.5469 336.666 49.2802 334.186 49.2802C331.706 49.2802 329.652 48.5336 328.026 47.0402C327.839 46.8802 327.652 46.6936 327.466 46.4802C326.612 45.6269 325.986 44.6802 325.586 43.6402C325.586 43.5869 325.586 43.5336 325.586 43.4802C325.586 43.2936 325.679 43.1469 325.866 43.0402L327.426 42.4002C327.479 42.3736 327.546 42.3602 327.626 42.3602C327.866 42.3602 328.026 42.4536 328.106 42.6402C328.399 43.4136 328.866 44.1736 329.506 44.9202C329.639 45.0536 329.772 45.1736 329.906 45.2802C331.026 46.3202 332.466 46.8402 334.226 46.8402Z" fill="#183363"/>
<path d="M361.414 23.1202C361.547 23.1202 361.654 23.1736 361.734 23.2802C361.814 23.3602 361.854 23.4536 361.854 23.5602V25.0802C361.854 25.2136 361.801 25.3202 361.694 25.4002C361.614 25.4802 361.521 25.5202 361.414 25.5202C360.321 25.5202 358.681 25.5202 356.494 25.5202C354.334 25.5202 352.707 25.5202 351.614 25.5202V33.6002H361.174C361.307 33.6002 361.414 33.6536 361.494 33.7602C361.601 33.8402 361.654 33.9469 361.654 34.0802V35.5602C361.654 35.6936 361.601 35.8002 361.494 35.8802C361.414 35.9602 361.307 36.0002 361.174 36.0002H351.614V46.4402H361.414C361.547 46.4402 361.654 46.4936 361.734 46.6002C361.814 46.6802 361.854 46.7736 361.854 46.8802V48.4002C361.854 48.5069 361.814 48.6136 361.734 48.7202C361.654 48.8002 361.547 48.8402 361.414 48.8402H349.494C349.361 48.8402 349.254 48.8002 349.174 48.7202C349.094 48.6402 349.054 48.5336 349.054 48.4002V23.5602C349.054 23.4269 349.094 23.3202 349.174 23.2402C349.254 23.1602 349.361 23.1202 349.494 23.1202H361.414Z" fill="#183363"/>
</svg>
